HIERARCHY
ROOT Hips
{
	OFFSET 0.000000 0.000000 0.000000
	CHANNELS 6 Xposition Yposition Zposition Zrotation Yrotation Xrotation 
	JOINT LHipJoint
	{
		OFFSET 0.000000 0.000000 0.000000
		CHANNELS 3 Zrotation Yrotation Xrotation
		JOINT LeftUpLeg
		{
			OFFSET 1.363060 -1.794630 0.839290
			CHANNELS 3 Zrotation Yrotation Xrotation
			JOINT LeftLeg
			{
				OFFSET 2.448110 -6.726130 0.000000
				CHANNELS 3 Zrotation Yrotation Xrotation
				JOINT LeftFoot
				{
					OFFSET 2.562200 -7.039590 0.000000
					CHANNELS 3 Zrotation Yrotation Xrotation
					JOINT LeftToeBase
					{
						OFFSET 0.157640 -0.433110 2.322550
						CHANNELS 3 Zrotation Yrotation Xrotation
						End Site
						{
							OFFSET 0.000000 0.000000 0.000000
						}
					}
				}
			}
		}
	}
	JOINT RHipJoint
	{
		OFFSET 0.000000 0.000000 0.000000
		CHANNELS 3 Zrotation Yrotation Xrotation
		JOINT RightUpLeg
		{
			OFFSET -1.305520 -1.794630 0.839290
			CHANNELS 3 Zrotation Yrotation Xrotation
			JOINT RightLeg
			{
				OFFSET -2.542530 -6.985550 0.000000
				CHANNELS 3 Zrotation Yrotation Xrotation
				JOINT RightFoot
				{
					OFFSET -2.568260 -7.056230 0.000000
					CHANNELS 3 Zrotation Yrotation Xrotation
					JOINT RightToeBase
					{
						OFFSET -0.164730 -0.452590 2.363150
						CHANNELS 3 Zrotation Yrotation Xrotation
						End Site
						{
							OFFSET 0.000000 0.000000 0.000000
						}
					}
				}
			}
		}
	}
	JOINT LowerBack
	{
		OFFSET 0.000000 0.000000 0.000000
		CHANNELS 3 Zrotation Yrotation Xrotation
		JOINT Spine
		{
			OFFSET 0.028270 2.035590 -0.193380
			CHANNELS 3 Zrotation Yrotation Xrotation
			JOINT Spine1
			{
				OFFSET 0.056720 2.048850 -0.042750
				CHANNELS 3 Zrotation Yrotation Xrotation
				JOINT Neck
				{
					OFFSET 0.000000 0.000000 0.000000
					CHANNELS 3 Zrotation Yrotation Xrotation
					JOINT Neck1
					{
						OFFSET -0.054170 1.746240 0.172020
						CHANNELS 3 Zrotation Yrotation Xrotation
						JOINT Head
						{
							OFFSET 0.104070 1.761360 -0.123970
							CHANNELS 3 Zrotation Yrotation Xrotation
							End Site
							{
								OFFSET 0.000000 0.000000 0.000000
							}
						}
					}
				}
				JOINT LeftShoulder
				{
					OFFSET 0.000000 0.000000 0.000000
					CHANNELS 3 Zrotation Yrotation Xrotation
					JOINT LeftArm
					{
						OFFSET 3.362410 1.200890 -0.311210
						CHANNELS 3 Zrotation Yrotation Xrotation
						JOINT LeftForeArm
						{
							OFFSET 4.983000 -0.000000 -0.000000
							CHANNELS 3 Zrotation Yrotation Xrotation
							JOINT LeftHand
							{
								OFFSET 3.483560 -0.000000 -0.000000
								CHANNELS 3 Zrotation Yrotation Xrotation
								JOINT LeftFingerBase
								{
									OFFSET 0.000000 0.000000 0.000000
									CHANNELS 3 Zrotation Yrotation Xrotation
									JOINT LeftHandIndex1
									{
										OFFSET 0.715260 -0.000000 -0.000000
										CHANNELS 3 Zrotation Yrotation Xrotation
										End Site
										{
											OFFSET 0.000000 0.000000 0.000000
										}
									}
								}
								JOINT LThumb
								{
									OFFSET 0.000000 0.000000 0.000000
									CHANNELS 3 Zrotation Yrotation Xrotation
									End Site
									{
										OFFSET 0.000000 0.000000 0.000000
									}
								}
							}
						}
					}
				}
				JOINT RightShoulder
				{
					OFFSET 0.000000 0.000000 0.000000
					CHANNELS 3 Zrotation Yrotation Xrotation
					JOINT RightArm
					{
						OFFSET -3.136600 1.374050 -0.404650
						CHANNELS 3 Zrotation Yrotation Xrotation
						JOINT RightForeArm
						{
							OFFSET -5.241900 -0.000000 -0.000000
							CHANNELS 3 Zrotation Yrotation Xrotation
							JOINT RightHand
							{
								OFFSET -3.444170 -0.000000 -0.000000
								CHANNELS 3 Zrotation Yrotation Xrotation
								JOINT RightFingerBase
								{
									OFFSET 0.000000 0.000000 0.000000
									CHANNELS 3 Zrotation Yrotation Xrotation
									JOINT RightHandIndex1
									{
										OFFSET -0.622530 -0.000000 -0.000000
										CHANNELS 3 Zrotation Yrotation Xrotation
										End Site
										{
											OFFSET 0.000000 0.000000 0.000000
										}
									}
								}
								JOINT RThumb
								{
									OFFSET 0.000000 0.000000 0.000000
									CHANNELS 3 Zrotation Yrotation Xrotation
									End Site
									{
										OFFSET 0.000000 0.000000 0.000000
									}
								}
							}
						}
					}
				}
			}
		}
	}
}
MOTION
Frames: 11
Frame Time: 0.008333
22.458408 14.134955 17.998649 26.090621 -74.585640 -13.481526 -25.615087 -5.141943 -12.642470 80.829137 52.242155 22.808505 -5.608545 57.702712 52.799512 32.596847 -15.533902 -28.047134 -172.011661 -23.667254 -156.758282 -6.011249 -0.007184 -6.030522 24.971957 10.325485 -47.690193 -4.514015 -25.869169 70.867971 -15.089805 -12.151102 -9.374975 -7.736174 -4.951374 -33.233380 12.630880 0.034249 21.939550 -2.263762 -2.163167 -8.181695 -7.668623 -2.839659 -1.472740 -3.471697 1.460701 -9.178967 4.134851 1.223062 11.207615 -16.292076 7.774673 11.364942 10.347958 1.933352 5.571691 -81.844732 -34.218720 19.667474 148.805820 -81.227187 -156.119568 -11.801082 22.195090 -5.391877 -0.000001 -0.000002 -0.000000 -0.000000 0.000000 0.000000 -0.000000 -0.000000 -0.000000 -13.036497 6.216801 2.836605 74.861538 31.476533 18.625335 -22.000504 77.947127 -7.306700 3.505242 3.845072 0.714435 0.000000 0.000002 -0.000000 0.000000 0.000000 0.000000 -0.000000 0.000000 -0.000000 
22.218769 14.177162 18.051802 25.750641 -74.022218 -13.319521 -25.569057 -5.122400 -11.750181 79.489170 52.883447 19.941961 -2.786460 57.402266 56.171746 33.387475 -15.237997 -27.794925 -158.468505 -27.811260 -160.479310 -5.639338 -0.016586 -6.009737 24.677520 10.582457 -46.136437 -4.474784 -25.513836 70.615030 -15.635071 -13.383597 -9.030664 -8.017096 -5.286919 -34.778804 12.984001 -0.010474 21.484262 -2.483322 -1.972052 -8.263085 -7.354206 -2.636895 -0.990599 -4.032446 1.273826 -9.618408 3.545292 1.182915 11.196860 -14.893218 6.230191 11.564938 9.461132 2.359911 5.078064 -80.755312 -32.842790 18.755247 149.334727 -81.512118 -157.150768 -10.662401 22.546842 -5.260203 -0.000001 -0.000002 -0.000000 0.000000 -0.000000 -0.000000 -0.000000 -0.000000 -0.000000 -12.910844 6.215015 3.034679 73.698235 33.093264 17.924760 -19.807001 78.039950 -4.733192 3.395778 4.837494 0.878601 0.000000 0.000002 -0.000000 -0.000000 -0.000000 -0.000000 -0.000000 0.000000 -0.000000 
21.971171 14.219054 18.099099 26.474995 -75.230639 -14.059347 -22.992382 -7.588225 -10.459253 77.653458 51.362388 21.091030 2.726407 58.142788 61.523104 34.931772 -15.392073 -27.532940 -149.217146 -32.634035 -164.308371 -6.324008 0.845075 -6.768934 26.161477 10.721547 -43.497733 -4.145202 -25.339042 69.474562 -15.962102 -14.242102 -8.975665 -7.385369 -6.766212 -36.071761 12.755478 0.353228 20.986367 -2.252610 -1.563823 -7.917923 -6.874700 -2.384587 -0.377446 -4.423388 1.113565 -10.018733 3.218432 1.135296 10.696063 -14.109652 5.084495 11.492033 9.748861 3.817887 5.024323 -80.754491 -31.601518 17.689178 151.661154 -80.937084 -160.290036 -9.717168 23.291264 -5.253931 -0.000001 -0.000002 -0.000000 -0.000000 -0.000000 0.000000 -0.000000 0.000000 0.000000 -14.085054 6.992778 3.007665 73.022130 35.248799 16.210380 -16.154225 78.595523 -2.127277 3.952567 4.451390 0.843440 0.000000 0.000002 -0.000000 0.000000 0.000000 0.000000 0.000000 0.000000 -0.000000 
21.728679 14.273724 18.144745 26.731107 -76.074569 -14.353729 -20.589644 -9.873006 -9.189209 75.124912 50.401953 21.148152 6.129685 57.346061 65.741867 35.868440 -14.707711 -26.513310 -140.008505 -35.377886 -168.337667 -6.837200 1.600041 -7.567400 27.420607 10.517628 -40.845449 -4.113182 -25.308731 68.155237 -16.628363 -14.650616 -8.625872 -7.435627 -7.037296 -36.847784 12.757528 0.671276 20.607249 -2.170707 -0.819300 -7.655768 -6.910437 -1.727486 0.369927 -4.395054 0.886815 -10.497856 2.906328 0.947217 10.262955 -13.492688 3.722521 11.943569 10.351944 4.129593 4.622237 -80.557194 -30.342531 16.561958 153.666278 -80.468117 -163.252704 -8.516667 24.130683 -5.203993 -0.000001 -0.000002 -0.000000 -0.000000 -0.000000 0.000000 -0.000000 -0.000000 0.000000 -14.551499 6.687304 3.056247 72.136042 37.302117 14.873268 -14.560601 78.874653 -0.601773 3.308496 4.596167 0.832394 0.000000 0.000002 -0.000000 0.000000 -0.000000 -0.000000 0.000000 0.000000 -0.000000 
21.488739 14.316892 18.190991 27.688857 -76.987648 -15.413391 -18.089521 -11.914814 -7.984606 72.272919 49.835765 21.064227 8.941393 56.188032 69.740065 36.913126 -14.294842 -25.346363 -129.861018 -36.800813 -172.793774 -7.633886 2.474264 -8.478707 28.992179 10.076559 -38.103329 -4.466864 -25.244009 66.872064 -17.373090 -14.703511 -8.190235 -7.925164 -6.592990 -37.348403 12.547245 0.907184 20.282244 -2.040849 -0.085113 -7.369711 -6.976278 -1.082144 0.863784 -4.283514 0.805043 -10.743179 2.621799 0.846946 9.856532 -12.275565 2.383804 11.002640 11.166644 4.545162 4.381657 -80.391567 -28.968442 15.245774 155.961021 -80.121110 -166.815651 -8.860814 25.318222 -5.551324 -0.000001 -0.000002 -0.000000 -0.000000 -0.000000 0.000000 -0.000000 0.000000 -0.000000 -15.019624 6.642163 3.332881 71.097264 39.401692 13.340359 -12.774369 79.097002 0.936117 3.129372 4.661039 0.833210 0.000000 0.000002 -0.000000 0.000000 0.000000 0.000000 0.000000 0.000000 -0.000000 
21.245796 14.350766 18.229730 28.941153 -77.960020 -16.961971 -15.556651 -14.152532 -7.100783 69.330678 49.790843 20.857078 11.528760 54.174532 73.498508 38.025112 -14.170537 -23.850132 -120.712301 -37.627360 -177.054156 -8.607763 3.292112 -9.429626 31.210765 9.193053 -35.211109 -6.023373 -25.061828 65.661665 -17.705193 -13.648308 -7.884565 -7.166326 -7.253598 -36.499556 12.205347 1.172997 20.077326 -1.825441 0.426366 -7.049359 -6.931116 -0.618033 1.550255 -4.155243 0.570215 -11.187749 2.363010 0.630140 9.450281 -11.820946 1.128326 11.417544 12.119168 5.402081 4.020358 -80.307964 -27.526797 13.997664 157.575745 -79.752791 -169.542103 -8.670615 26.290683 -5.734349 -0.000001 -0.000002 -0.000000 -0.000000 -0.000000 -0.000000 0.000000 -0.000000 0.000000 -15.694832 6.880166 3.453276 69.961263 41.645421 11.695758 -11.101265 79.279239 2.100366 3.050193 4.325748 0.772398 0.000000 0.000002 -0.000000 0.000000 0.000000 -0.000000 0.000000 0.000000 -0.000000 
21.010360 14.386547 18.272222 29.950263 -82.486610 -19.729969 -11.956920 -23.181817 -9.243241 66.668911 47.319645 25.074751 14.612083 51.507708 74.780323 39.245857 -14.724009 -18.251175 -113.404684 -37.832013 179.516895 -10.548182 6.067176 -10.594368 36.238549 9.125488 -30.036566 -6.559517 -25.007491 62.565521 -18.227596 -13.556321 -8.110928 -7.492854 -6.867103 -36.636361 12.847449 2.286608 21.735232 -1.565121 2.008926 -6.548321 -7.001903 0.495123 2.286648 -4.024126 0.426173 -11.734027 2.198990 0.477652 9.178801 -10.707822 -0.072862 11.725110 14.525514 6.696245 4.027494 -81.683635 -25.908012 12.804862 159.848306 -78.738614 -173.462722 -8.663897 27.663921 -6.051778 -0.000001 -0.000002 -0.000000 0.000000 -0.000000 0.000000 0.000000 0.000000 0.000000 -18.068097 6.936728 3.278996 69.331325 43.954591 9.975123 -9.621932 79.977672 2.731583 1.754527 3.376113 0.554014 0.000000 0.000002 -0.000000 -0.000000 0.000000 0.000000 0.000000 -0.000000 0.000000 
20.548949 15.186186 18.125826 28.379787 -72.657034 -16.533561 -29.817723 -1.210165 -5.253628 36.008264 21.257725 -29.417228 7.497767 29.258635 75.513301 -11.628284 0.240788 -5.026332 -1.833117 12.407019 8.218076 -2.200770 -0.782645 -6.001313 25.376599 5.438453 -31.865997 -3.424822 -20.045936 56.913685 -20.217254 -13.958672 -4.737606 -7.654425 -6.580969 -36.489852 13.738634 -0.895757 21.401648 -4.576793 -1.466288 -9.853126 -6.808751 -1.282284 1.152816 -4.823429 0.183924 -11.203421 1.120689 0.445933 9.945175 -10.006706 -1.269267 12.479411 5.739468 4.955037 2.044630 -73.966039 -21.935991 12.658059 161.220664 -78.604752 -174.739500 -8.694237 28.470247 -6.247562 -0.000001 -0.000002 -0.000000 0.000000 -0.000000 -0.000000 0.000000 0.000000 0.000000 -9.220614 7.478450 4.255980 67.213587 43.321820 11.753714 -8.501921 78.738673 3.904427 1.339897 3.705097 0.585342 0.000000 0.000002 -0.000000 0.000000 0.000000 0.000000 0.000000 0.000000 0.000000 
20.346547 15.186336 18.166366 30.604346 -73.171952 -17.909000 -20.367298 -2.286536 -3.698119 19.556607 4.327178 -35.423382 4.990375 23.873892 80.434150 -11.680265 2.310744 3.817870 -1.338450 9.072924 8.227803 -6.515516 -0.334903 -8.465767 30.210469 4.471268 -27.747286 -4.215958 -20.405197 53.871856 -20.370859 -13.667914 -5.226468 -7.944615 -6.389804 -36.951578 12.431022 -0.437697 19.317547 -2.930459 -0.813495 -8.151479 -7.348305 -0.994125 1.003234 -4.689509 0.084227 -10.938563 1.134147 0.258114 9.207055 -9.246862 -2.545272 12.640577 8.810350 5.461937 2.218677 -75.906407 -20.133814 11.273235 161.958031 -77.688144 -177.172654 -8.786865 29.776471 -6.578649 -0.000001 -0.000002 -0.000000 -0.000000 0.000000 -0.000000 0.000000 -0.000000 0.000000 -12.489443 7.907849 4.158830 66.848687 45.130738 9.529466 -7.652123 79.415774 3.944231 1.022209 2.662421 0.413948 0.000000 0.000002 -0.000000 0.000000 0.000000 0.000000 0.000000 0.000000 0.000000 
20.124474 15.190991 18.200901 32.154526 -74.220377 -20.292617 -14.175366 -4.892704 -4.386134 10.256543 -4.324958 -35.853068 1.366504 19.993207 82.723022 -11.976424 1.237767 11.122804 -1.015075 6.715115 7.819656 -9.846594 0.313252 -9.763149 34.763492 2.837429 -23.336155 -4.726836 -19.973260 50.738069 -19.509013 -13.628055 -5.738823 -8.142518 -6.426271 -37.634068 11.812165 -0.076301 19.253552 -2.165844 -0.126499 -7.207467 -7.208976 -0.586455 0.708591 -4.799963 0.181953 -10.378117 1.098807 0.274773 8.901072 -6.925985 -3.615705 10.283191 11.276466 5.641091 2.430448 -77.392896 -17.878371 10.153178 162.046310 -76.847455 -178.877917 -8.086563 30.875895 -6.647548 -0.000001 -0.000002 -0.000000 0.000000 0.000000 0.000000 -0.000000 0.000000 0.000000 -15.259182 8.391819 4.104157 66.113225 46.323129 7.395017 -6.872680 79.936037 4.316376 -0.176735 1.993057 0.274232 0.000000 0.000002 -0.000000 -0.000000 0.000000 -0.000000 0.000000 -0.000000 -0.000000 
19.915465 15.203604 18.235435 32.544059 -73.914241 -20.667677 -14.780559 -4.342742 -4.173457 10.771675 -3.322849 -37.684756 3.228450 19.569846 82.738043 -11.028328 1.231695 9.934614 -1.513488 9.003052 5.915190 -9.452528 0.156690 -9.728565 34.394569 1.911273 -22.636319 -4.298991 -19.015389 50.835876 -19.374239 -13.808257 -5.857869 -8.153780 -6.609419 -38.081175 11.989049 -0.275046 19.143711 -2.297124 -0.098560 -7.311932 -7.230314 -0.550301 0.282659 -5.117285 0.019868 -10.118629 0.652079 0.175242 9.078754 -5.862435 -4.834494 11.058235 10.915460 5.944240 2.198305 -77.335736 -15.306800 10.132967 161.623773 -75.915408 -178.123618 -9.517246 30.897924 -7.045065 -0.000001 -0.000002 -0.000000 -0.000000 0.000000 0.000000 0.000000 -0.000000 0.000000 -15.345281 8.899318 4.365931 65.753603 47.049990 6.835431 -6.816661 80.545127 4.456635 1.050638 2.217389 0.348356 0.000000 0.000002 -0.000000 0.000000 -0.000000 0.000000 0.000000 0.000000 0.000000 
